<svg width="16" height="16" viewBox="0 0 16 16" fill="none" xmlns="http://www.w3.org/2000/svg">
<path d="M8.00004 0.5C6.99068 0.5 5.99119 0.69881 5.05866 1.08508C4.12613 1.47135 3.27881 2.03751 2.56508 2.75124C1.12364 4.19268 0.313843 6.14769 0.313843 8.1862C0.313843 11.5835 2.51978 14.4658 5.5712 15.4881C5.95551 15.5496 6.07849 15.3113 6.07849 15.1038C6.07849 14.927 6.07849 14.4428 6.07849 13.8048C3.94942 14.266 3.49593 12.7749 3.49593 12.7749C3.14236 11.8833 2.64276 11.645 2.64276 11.645C1.94332 11.1684 2.69657 11.1838 2.69657 11.1838C3.46519 11.2376 3.87255 11.9755 3.87255 11.9755C4.54125 13.1438 5.67113 12.7979 6.10924 12.6135C6.17841 12.1139 6.37826 11.7757 6.59347 11.5835C4.88713 11.3913 3.09625 10.7303 3.09625 7.80189C3.09625 6.94872 3.38832 6.26465 3.88793 5.71893C3.81106 5.52678 3.54205 4.72741 3.96479 3.68977C3.96479 3.68977 4.61043 3.48225 6.07849 4.47377C6.6857 4.30467 7.34672 4.22012 8.00004 4.22012C8.65337 4.22012 9.31438 4.30467 9.92159 4.47377C11.3897 3.48225 12.0353 3.68977 12.0353 3.68977C12.458 4.72741 12.189 5.52678 12.1122 5.71893C12.6118 6.26465 12.9038 6.94872 12.9038 7.80189C12.9038 10.738 11.1053 11.3837 9.39125 11.5758C9.66795 11.8141 9.92159 12.2829 9.92159 12.9978C9.92159 14.0277 9.92159 14.8578 9.92159 15.1038C9.92159 15.3113 10.0446 15.5573 10.4366 15.4881C13.488 14.4581 15.6862 11.5835 15.6862 8.1862C15.6862 7.17684 15.4874 6.17735 15.1012 5.24482C14.7149 4.31229 14.1487 3.46497 13.435 2.75124C12.7213 2.03751 11.874 1.47135 10.9414 1.08508C10.0089 0.69881 9.00941 0.5 8.00004 0.5Z" fill="black"/>
</svg>
