<svg width="32" height="30" viewBox="0 0 32 30" fill="none" xmlns="http://www.w3.org/2000/svg">
<path d="M31.9 29.5V9.2C31.9 4.39512 28.0049 0.5 23.2 0.5V9.2V20.8V29.5H31.9Z" fill="#3700B3"/>
<path d="M14.5 0.5H0C0 4.29311 2.42743 7.51926 5.81358 8.70974C6.06782 4.13294 9.85965 0.5 14.5 0.5Z" fill="#3700B3"/>
<path d="M23.2 9.2C23.2 4.39512 19.3049 0.5 14.5 0.5V9.2H23.2Z" fill="#3700B3"/>
<path d="M23.2 20.8C23.2 15.9951 19.3049 12.1 14.5 12.1V20.8H23.2Z" fill="#3700B3"/>
<path d="M5.8 12.1H0C0 15.888 2.42094 19.1106 5.8 20.305V12.1Z" fill="#3700B3"/>
<path d="M5.8 29.5H14.5V20.8H8.7C7.68316 20.8 6.70706 20.6256 5.8 20.305V29.5Z" fill="#3700B3"/>
<path d="M5.8 9.2V12.1H14.5V9.2H8.7C7.68823 9.2 6.7168 9.02729 5.81358 8.70974C5.80457 8.87202 5.8 9.03547 5.8 9.2Z" fill="#3700B3"/>
<path d="M14.5 12.1H5.8V20.305C6.70706 20.6256 7.68316 20.8 8.7 20.8H14.5V12.1Z" fill="#9B80D9"/>
<path d="M14.5 9.2V0.5C9.85965 0.5 6.06782 4.13294 5.81358 8.70974C6.7168 9.02729 7.68823 9.2 8.7 9.2H14.5Z" fill="#9B80D9"/>
</svg>
