<svg width="32" height="29" viewBox="0 0 32 29" fill="none" xmlns="http://www.w3.org/2000/svg">
<path d="M31.9 29V8.7C31.9 3.89512 28.0049 0 23.2 0V8.7V20.3V29H31.9Z" fill="white"/>
<path d="M14.5 0H0C0 3.79311 2.42743 7.01926 5.81358 8.20974C6.06782 3.63294 9.85965 0 14.5 0Z" fill="white"/>
<path d="M23.2 8.7C23.2 3.89512 19.3049 0 14.5 0V8.7H23.2Z" fill="white"/>
<path d="M23.2 20.3C23.2 15.4951 19.3049 11.6 14.5 11.6V20.3H23.2Z" fill="white"/>
<path d="M5.8 11.6H0C0 15.388 2.42094 18.6106 5.8 19.805V11.6Z" fill="white"/>
<path d="M5.8 29H14.5V20.3H8.7C7.68316 20.3 6.70706 20.1256 5.8 19.805V29Z" fill="white"/>
<path d="M5.8 8.7V11.6H14.5V8.7H8.7C7.68823 8.7 6.7168 8.52729 5.81358 8.20974C5.80457 8.37202 5.8 8.53547 5.8 8.7Z" fill="white"/>
<path d="M14.5 11.6H5.8V19.805C6.70706 20.1256 7.68316 20.3 8.7 20.3H14.5V11.6Z" fill="#BEBEBE"/>
<path d="M14.5 8.7V0C9.85965 0 6.06782 3.63294 5.81358 8.20974C6.7168 8.52729 7.68823 8.7 8.7 8.7H14.5Z" fill="#BEBEBE"/>
</svg>
